<svg width="256" height="256" viewBox="0 0 256 256" fill="none" xmlns="http://www.w3.org/2000/svg">
<rect width="256" height="256" fill="white"/>
<mask id="mask0_23_1795" style="mask-type:alpha" maskUnits="userSpaceOnUse" x="0" y="0" width="256" height="256">
<rect width="256" height="256" fill="#D9D9D9"/>
</mask>
<g mask="url(#mask0_23_1795)">
<path d="M278 207.5C205.5 82 111.5 72 79.5 72C-104.812 71.9999 -279.493 302.616 -406 410L493.5 530.5L1503.5 538C1591.17 475.5 1748.8 335.6 1678 276C1589.5 201.5 1694.5 182 1479 207.5C1263.5 233 1281 91.5 1129.5 112.5C978 133.5 891 296 771.5 207.5C675.9 136.7 575.5 194.643 546 207.5C483.667 234.667 336 307.9 278 207.5Z" fill="#ECEDEE"/>
</g>
<circle cx="185" cy="185" r="45.5" fill="white" stroke="#CBCCCD" stroke-width="3"/>
<mask id="mask1_23_1795" style="mask-type:alpha" maskUnits="userSpaceOnUse" x="146" y="146" width="78" height="78">
<circle cx="185" cy="185" r="39" fill="#B7FF5A"/>
</mask>
<g mask="url(#mask1_23_1795)">
<rect x="138" y="146" width="94" height="78" fill="#006AA7"/>
<rect x="138" y="179" width="94" height="12" fill="#FFCD00"/>
<rect x="164" y="146" width="12" height="78" fill="#FFCD00"/>
</g>
<circle cx="185" cy="185" r="39" fill="white" fill-opacity="0.3"/>
<circle cx="71" cy="71" r="45.5" fill="white" stroke="#CBCCCD" stroke-width="3"/>
<mask id="mask2_23_1795" style="mask-type:alpha" maskUnits="userSpaceOnUse" x="32" y="32" width="78" height="78">
<circle cx="71" cy="71" r="39" fill="#B7FF5A"/>
</mask>
<g mask="url(#mask2_23_1795)">
<rect x="32" y="118" width="94" height="26" transform="rotate(-90 32 118)" fill="#0055A4"/>
<rect x="58" y="118" width="94" height="26" transform="rotate(-90 58 118)" fill="white"/>
<rect x="84" y="118" width="94" height="26" transform="rotate(-90 84 118)" fill="#EF4135"/>
</g>
<circle cx="71" cy="71" r="39" fill="white" fill-opacity="0.3"/>
<circle cx="71" cy="185" r="45.5" fill="white" stroke="#CBCCCD" stroke-width="3"/>
<mask id="mask3_23_1795" style="mask-type:alpha" maskUnits="userSpaceOnUse" x="32" y="146" width="78" height="78">
<circle cx="71" cy="185" r="39" fill="#B7FF5A"/>
</mask>
<g mask="url(#mask3_23_1795)">
<rect x="24" y="146" width="94" height="26" fill="black"/>
<rect x="24" y="172" width="94" height="26" fill="#E1001F"/>
<rect x="24" y="198" width="94" height="26" fill="#F6D928"/>
</g>
<circle cx="71" cy="185" r="39" fill="white" fill-opacity="0.3"/>
<circle cx="185" cy="71" r="45.5" fill="white" stroke="#CBCCCD" stroke-width="3"/>
<mask id="mask4_23_1795" style="mask-type:alpha" maskUnits="userSpaceOnUse" x="146" y="32" width="78" height="78">
<circle cx="185" cy="71" r="39" fill="#B7FF5A"/>
</mask>
<g mask="url(#mask4_23_1795)">
<rect x="146" y="32" width="78" height="78" fill="#DA291C"/>
<rect x="179" y="52" width="12" height="38" fill="white"/>
<rect x="166" y="65" width="38" height="12" fill="white"/>
</g>
<circle cx="185" cy="71" r="39" fill="white" fill-opacity="0.3"/>
</svg>
